<?xml version="1.0" standalone="no"?>
<!DOCTYPE svg PUBLIC "-//W3C//DTD SVG 20010904//EN"
 "http://www.w3.org/TR/2001/REC-SVG-20010904/DTD/svg10.dtd">
<svg version="1.0" xmlns="http://www.w3.org/2000/svg"
 width="512.000000pt" height="512.000000pt" viewBox="0 0 512.000000 512.000000"
 preserveAspectRatio="xMidYMid meet">
<metadata>
Created by potrace 1.14, written by Peter Selinger 2001-2017
</metadata>
<g transform="translate(0.000000,512.000000) scale(0.100000,-0.100000)"
fill="#000000" stroke="none">
<path d="M1335 5114 c-152 -32 -254 -100 -329 -218 -70 -110 -69 -103 -74
-601 -4 -501 2 -583 57 -736 36 -102 59 -150 116 -240 53 -81 188 -221 265
-272 30 -20 53 -37 50 -38 -3 0 -212 -2 -465 -3 -519 -2 -498 1 -582 -83 -56
-55 -76 -103 -76 -183 -1 -106 51 -192 147 -243 39 -21 56 -22 386 -27 333 -5
346 -6 385 -27 92 -52 136 -120 140 -218 3 -103 -48 -188 -142 -235 -47 -23
-53 -24 -368 -26 -206 -1 -335 -5 -362 -13 -106 -29 -187 -140 -187 -255 0
-146 104 -254 252 -264 l64 -4 -74 -72 c-169 -166 -248 -358 -243 -592 3 -97
25 -201 60 -279 12 -27 25 -57 29 -65 42 -94 181 -240 293 -306 78 -47 191
-88 278 -103 84 -14 3527 -15 3577 -1 114 32 200 149 194 265 -7 147 -101 243
-256 261 -110 12 -161 38 -210 106 -58 79 -64 175 -18 265 44 84 114 125 235
136 143 14 242 115 249 255 8 150 -105 271 -257 275 -32 1 -59 3 -59 5 0 1 32
32 70 68 170 161 251 357 245 597 -2 64 -10 132 -18 159 -8 27 -13 48 -11 48
9 0 -68 154 -103 207 -96 145 -256 264 -421 312 -103 30 -132 33 -357 36 -115
2 -212 4 -214 4 -3 1 18 15 45 33 72 46 222 202 274 283 24 39 45 72 47 74 1
2 56 5 120 7 244 5 402 68 544 217 229 239 260 594 76 870 -127 191 -325 299
-572 312 -27 2 -55 3 -61 4 -7 1 -24 26 -39 57 -35 71 -127 163 -198 197 -121
60 -49 57 -1317 56 -641 -1 -1174 -3 -1185 -5z m2894 -780 c46 -19 97 -68 124
-119 28 -53 30 -163 3 -217 -39 -80 -122 -135 -217 -145 l-49 -5 0 255 0 256
51 -5 c28 -3 68 -11 88 -20z"/>
</g>
</svg>
